HIERARCHY
ROOT hip
{
	OFFSET 0.000000 0.000000 0.000000 
	CHANNELS 6 Xposition Yposition Zposition Xrotation Zrotation Yrotation
	JOINT abdomen
	{
		OFFSET 0.000000 3.402643 0.000000 
		CHANNELS 3 Xrotation Zrotation Yrotation
		JOINT chest
		{
			OFFSET 0.000000 8.438565 -0.680529 
			CHANNELS 3 Xrotation Zrotation Yrotation
			JOINT neck
			{
				OFFSET 0.000000 10.207942 -0.272212 
				CHANNELS 3 Xrotation Zrotation Yrotation
				JOINT head
				{
					OFFSET 0.000000 3.130431 0.000000 
					CHANNELS 3 Xrotation Zrotation Yrotation
					End Site
					{
						OFFSET 0.000000 3.130435 0.000000 
					}
				}
			}
			JOINT lCollar
			{
				OFFSET 3.470700 6.669187 -0.816635 
				CHANNELS 3 Yrotation Zrotation Xrotation
				JOINT lShldr
				{
					OFFSET 3.198488 0.000000 0.000000 
					CHANNELS 3 Zrotation Yrotation Xrotation
					JOINT lForeArm
					{
						OFFSET 10.139888 0.000000 0.000000 
						CHANNELS 3 Yrotation Zrotation Xrotation
						JOINT lHand
						{
							OFFSET 8.370511 0.000000 0.000000 
							CHANNELS 3 Zrotation Yrotation Xrotation
							End Site
							{
								OFFSET 4.083176 0.000000 0.000000 
							}
						}
					}
				}
			}
			JOINT rCollar
			{
				OFFSET -3.470700 6.669187 -0.816635 
				CHANNELS 3 Yrotation Zrotation Xrotation
				JOINT rShldr
				{
					OFFSET -3.198488 0.000000 0.000000 
					CHANNELS 3 Zrotation Yrotation Xrotation
					JOINT rForeArm
					{
						OFFSET -10.139888 0.000000 0.000000 
						CHANNELS 3 Yrotation Zrotation Xrotation
						JOINT rHand
						{
							OFFSET -8.370511 0.000000 0.000000 
							CHANNELS 3 Zrotation Yrotation Xrotation
							End Site
							{
								OFFSET -4.083176 0.000000 0.000000 
							}
						}
					}
				}
			}
		}
	}
	JOINT lThigh
	{
		OFFSET 5.308129 -1.633274 1.361059 
		CHANNELS 3 Xrotation Zrotation Yrotation
		JOINT lShin
		{
			OFFSET -2.041588 -20.007561 0.000000 
			CHANNELS 3 Xrotation Zrotation Yrotation
			JOINT lFoot
			{
				OFFSET 0.000000 -19.190928 -1.224953 
				CHANNELS 3 Xrotation Yrotation Zrotation
				End Site
				{
					OFFSET 0.000000 -2.449906 4.627600 
				}
			}
		}
	}
	JOINT rThigh
	{
		OFFSET -5.308129 -1.633274 1.361059 
		CHANNELS 3 Xrotation Zrotation Yrotation
		JOINT rShin
		{
			OFFSET 2.041588 -20.007561 0.000000 
			CHANNELS 3 Xrotation Zrotation Yrotation
			JOINT rFoot
			{
				OFFSET 0.000000 -19.190928 -1.224953 
				CHANNELS 3 Xrotation Yrotation Zrotation
				End Site
				{
					OFFSET 0.000000 -2.449906 4.627600 
				}
			}
		}
	}
}
MOTION
Frames: 11
Frame Time: 0.016667
17.250429 49.137383 0.524495 0.498047 0.000000 -2.500004 8.255935 -1.815896 -1.358287 4.916274 0.516968 -2.783266 19.918261 2.449162 5.610765 -4.915084 3.549670 7.945211 -12.006560 -11.483939 2.744046 53.459106 -39.600548 -18.083746 -71.089523 8.002147 10.513035 20.923435 -15.658816 9.689520 6.767549 9.373271 2.808346 -38.286472 18.181688 -36.069618 79.068855 -7.614531 13.785928 -17.980278 -0.906875 -30.888031 -6.804334 12.701364 0.018211 21.716768 -0.654829 -1.122642 -6.930153 1.837788 -2.027218 -25.140263 -16.316376 14.850361 49.783367 -1.238045 1.470802 12.499235 -6.304446 3.402344 
17.868324 48.960644 0.232071 0.515887 0.983838 -4.072838 8.255935 -1.815896 -1.358287 5.092442 -0.351271 -2.334060 22.910717 -0.077581 6.767573 -2.117532 1.977168 9.029138 -11.478929 -12.334978 2.738232 50.634472 -35.487732 -11.992501 -70.554840 8.054766 10.470490 20.092604 -14.481012 9.487883 7.246762 8.564139 3.081495 -37.993870 15.749754 -31.839802 76.394897 -7.995405 13.772804 -18.071798 -1.875676 -31.474167 -7.827431 11.067400 1.540853 24.015539 -0.805603 -0.759431 -7.693423 1.326479 -1.932564 -32.042885 -14.774325 17.220901 61.021305 -1.609960 1.654626 10.614034 -4.797548 3.385586 
18.431061 48.745358 -0.024900 0.658614 2.099804 -5.462464 8.255935 -1.815896 -1.358287 5.090114 -1.405323 -2.080889 25.558495 -2.767154 7.801741 0.519377 0.432124 10.478878 -11.179363 -13.336961 2.556424 48.489147 -31.084829 -6.142042 -69.655602 8.146142 10.402549 18.882368 -13.188015 9.628992 7.586784 7.556198 3.219115 -38.003117 13.198509 -27.641390 73.725433 -8.340923 13.579571 -17.990641 -2.859763 -32.235737 -9.068944 9.888504 3.285047 25.772373 -0.815721 -0.853829 -8.053333 0.848558 -1.936710 -38.572517 -13.046596 19.364233 72.242218 -1.961949 1.775598 7.849294 -3.583373 3.466342 
18.929924 48.507401 -0.219858 1.060910 3.461725 -6.818928 8.255935 -1.815896 -1.358287 4.917620 -2.635393 -1.818525 28.055523 -5.635041 8.890858 3.163589 -1.251734 11.916938 -10.918676 -14.481376 2.135458 44.786266 -26.502724 -0.362410 -68.232155 8.200154 10.296013 16.951506 -12.540831 12.210611 7.938222 6.344789 3.218280 -36.984779 12.336152 -24.762037 71.066284 -8.644539 13.361439 -17.057768 -3.496179 -32.344440 -10.116950 8.486105 5.222860 28.043518 -0.728521 -1.096995 -9.118087 0.557011 -1.879696 -44.463856 -10.616813 20.785744 82.101799 -2.274057 2.006258 4.349415 -2.347042 3.618028 
19.368042 48.280983 -0.354729 1.324583 4.700386 -7.975928 8.255935 -1.815896 -1.358287 4.755860 -3.855644 -1.742883 30.442690 -8.515676 9.519011 5.474589 -2.888112 13.396042 -10.838807 -15.644526 1.762529 41.638306 -21.617085 5.048956 -66.262321 8.317537 9.938536 14.899783 -11.974866 15.863933 8.123478 5.115808 3.229788 -35.018719 12.170517 -23.136093 68.778069 -8.933361 13.339774 -15.945292 -4.036013 -31.925512 -11.311718 7.230941 6.842300 29.458738 -0.738647 -1.165896 -9.813293 0.314490 -1.975651 -50.445709 -7.979496 22.421217 92.235191 -2.705331 2.115972 0.366339 -1.654357 3.875320 
19.743372 48.099857 -0.417135 1.610438 6.171845 -9.105863 8.255935 -1.815896 -1.358287 4.396728 -5.260991 -1.834594 32.202736 -11.156506 10.114147 7.456425 -4.320749 15.004238 -10.986413 -16.957626 1.111284 39.064640 -16.317110 7.685550 -64.112823 8.451930 9.763696 12.944171 -11.407932 20.048214 8.163898 3.670141 3.088512 -31.716833 11.350986 -23.441347 67.357018 -9.134890 13.205537 -14.866308 -3.933329 -30.530327 -11.942214 5.926912 8.321877 30.510881 -0.831514 -1.239168 -10.489621 -0.056580 -1.975398 -54.526543 -5.020844 22.737190 99.134918 -3.087228 2.259441 -3.622352 -1.024791 3.971802 
20.062647 47.981190 -0.423510 1.767785 7.534370 -9.879823 8.255935 -1.815896 -1.358287 4.059397 -6.666259 -1.907792 33.323261 -13.781477 10.650251 8.911764 -5.578042 16.643177 -11.174983 -18.240610 0.303494 36.971169 -10.882086 10.107759 -61.447102 8.630911 9.528992 10.872237 -10.967387 23.689487 8.232793 2.210413 2.774846 -28.028498 10.412490 -24.865496 66.289093 -9.233974 13.118341 -13.994196 -3.417620 -28.459135 -12.370616 4.637170 10.117651 30.858730 -0.831661 -1.090643 -10.945418 -0.884190 -1.790546 -58.600460 -1.876396 22.705246 105.991173 -3.274115 2.205245 -7.612185 -0.321573 3.903024 
20.329863 47.955650 -0.381041 2.052590 8.765307 -10.632208 8.255935 -1.815896 -1.358287 3.544416 -8.071589 -1.943156 34.319054 -16.185911 11.036421 9.866156 -6.826309 18.090807 -11.346328 -19.554148 -0.342783 34.801414 -5.718691 10.021457 -58.254417 8.822036 9.412698 9.621418 -10.640439 24.973925 8.284274 0.764254 2.628482 -24.346903 8.757579 -26.758211 65.409462 -9.374450 13.193233 -13.493436 -2.451456 -25.399843 -12.450708 3.456865 11.931925 30.467899 -0.748545 -1.371622 -10.460210 -1.571600 -1.924248 -61.450748 0.974727 22.017176 109.874336 -3.635316 1.809276 -11.233861 0.724724 3.668082 
20.551655 48.015976 -0.305702 2.342716 9.755117 -11.218788 8.255935 -1.815896 -1.358287 3.027184 -9.311215 -1.929758 34.562801 -18.207220 11.807766 10.461462 -7.924433 19.469660 -11.534445 -20.474310 -1.114383 32.612076 -0.548258 9.577217 -54.513237 8.972455 8.871957 7.630035 -10.211651 26.447227 8.360332 -0.350279 2.270737 -21.139982 6.654552 -28.527901 64.685928 -9.391487 12.969812 -13.165494 -1.146823 -22.184053 -12.473117 2.428055 13.375544 29.639175 -0.816877 -1.018611 -10.366004 -2.226839 -2.035604 -63.364307 3.738073 21.254036 111.475395 -3.488981 1.721771 -14.513227 1.298259 3.642668 
20.734203 48.173038 -0.214428 2.993374 10.610332 -11.437517 8.255935 -1.815896 -1.358287 2.502499 -10.198660 -2.055238 34.567947 -20.256807 12.032861 10.531398 -8.884973 20.618921 -11.895930 -21.413818 -1.913518 29.592457 3.902248 6.151113 -50.595345 9.156811 8.502218 3.704856 -9.034457 30.124128 8.266241 -1.484879 1.885529 -19.308071 3.811852 -29.614061 63.981476 -9.478893 12.904537 -12.855803 0.040676 -20.012222 -12.430570 1.523068 14.265690 28.210396 -0.826286 -0.777302 -9.442257 -2.793721 -1.903286 -64.781128 6.423840 19.908186 111.124275 -3.625562 1.845707 -17.224136 2.296692 3.874186 
20.882967 48.402431 -0.111121 3.772521 11.080840 -11.664464 8.255935 -1.815896 -1.358287 1.784967 -11.077594 -1.970731 34.056435 -21.837696 12.721303 10.606550 -9.841214 21.571718 -12.105981 -21.953018 -2.777503 26.325010 8.050670 2.318371 -46.678104 9.261812 8.131774 -0.063112 -7.603345 33.667858 8.384013 -2.290268 1.296007 -18.327436 0.677141 -30.540989 63.092003 -9.583838 12.783822 -12.716045 0.876777 -19.053480 -12.129749 0.835822 15.179725 26.476170 -0.811967 -0.866820 -8.395442 -3.625598 -2.053542 -65.454506 8.679351 18.326857 108.666626 -3.283774 1.745558 -19.300285 2.785698 3.633621 
